<?xml version="1.0" encoding="UTF-8"?>
<svg id="Layer_2" data-name="Layer 2" xmlns="http://www.w3.org/2000/svg" viewBox="0 0 181.05 48.16">
  <g id="Layer_1-2" data-name="Layer 1">
    <g>
      <polygon points="47.85 .29 47.85 48.14 34.28 48.14 34.28 23.85 9.46 48.13 .17 38.85 24.28 13.86 0 13.86 0 .29 47.85 .29"/>
      <g>
        <g>
          <path d="M65.53,25.64c8.01.95,10.96,8.91,8.46,15.96-1.16,3.26-5.35,6.54-8.82,6.54h-10.53v-22.5c3.45.3,7.52-.4,10.89,0ZM61.06,43.14c6.19,1.17,8.39-4.53,6.6-9.64-1.09-3.12-3.75-2.99-6.6-2.86v12.5Z"/>
          <path d="M173.37,25.64c7.13.89,9.44,9.99,2.69,12.87l4.99,9.63h-6.78l-4.1-7.86c-.6-.61-1.49-.51-1.97.18v7.68h-6.07v-22.5c3.55.32,7.79-.43,11.25,0ZM173.09,35.18c2.49-3.8-1.31-5.87-4.74-4.56l.18,5.22c1.56.42,3.22.23,4.56-.66Z"/>
          <polygon points="159.26 25.64 159.26 30.64 150.34 30.64 150.34 34.57 157.48 34.57 157.48 38.85 150.34 38.85 150.34 43.14 159.62 43.14 159.62 48.14 143.91 48.14 143.91 25.64 159.26 25.64"/>
          <path d="M92.49,25.64c-.22,1.59.56,3.76-.54,5h-8.39v3.93h7.14v4.29h-7.14v4.29h9.28v5h-15.71v-22.5h15.36Z"/>
          <polygon points="127.13 25.64 131.59 41.36 136.05 25.64 142.12 25.64 134.95 48.1 128 48.16 120.34 25.64 127.13 25.64"/>
          <polygon points="101.41 25.64 101.41 43.14 109.99 43.14 109.99 48.14 95.34 48.14 95.34 25.64 101.41 25.64"/>
          <rect x="112.13" y="25.64" width="6.43" height="22.5"/>
        </g>
        <g>
          <path d="M60.35.29l3.04,13.93,3.25-13.95,5.46.06c1.12,4.04,1.59,8.74,2.84,12.69.15.48.12,1.09.76,1.2l2.86-13.93h5.71l-5.03,22.46-6.23.06-.63-.46-3.11-13.49c-.66.11-.6.73-.76,1.2-1.3,3.79-1.67,8.5-2.98,12.38h-6.45S53.92.29,53.92.29h6.43Z"/>
          <path d="M118.56.29l4.11,11.79c.73.15.5-.28.7-.71,1.51-3.37,2.51-7.56,3.76-11.07h8.21v22.5h-6.07v-13.57c-.53.09-.69.65-.89,1.07-1.79,3.72-2.93,8.33-4.64,12.14h-2.5c-1.81-3.79-2.85-8.42-4.64-12.14-.2-.42-.36-.98-.89-1.07v13.57h-5.36V.29h8.21Z"/>
          <polygon points="163.55 .29 170.69 12.78 170.69 .29 176.4 .29 176.4 22.78 170.16 22.78 161.76 8.86 161.76 22.78 156.41 22.78 156.41 .29 163.55 .29"/>
          <path d="M95.27.03c4.49-.32,9.88,1.82,11.81,6.19,3.05,6.9-.42,15.95-8.38,16.88C79.98,25.29,80.06,1.1,95.27.03ZM95.63,5.01c-6.56.69-6.74,14.53,2.02,13.11,5.38-.87,5.52-13.9-2.02-13.11Z"/>
          <polygon points="153.55 .29 153.55 5.29 144.62 5.29 144.62 9.21 151.77 9.21 151.77 13.86 144.62 13.86 144.62 18.14 153.91 18.14 153.91 22.78 138.2 22.78 138.2 .29 153.55 .29"/>
        </g>
      </g>
    </g>
  </g>
</svg>