<?xml version="1.0" encoding="UTF-8"?>
<svg id="Layer_2" xmlns="http://www.w3.org/2000/svg" version="1.1" viewBox="0 0 66.1 42">
  <!-- Generator: Adobe Illustrator 30.0.0, SVG Export Plug-In . SVG Version: 2.1.1 Build 123)  -->
  <defs>
    <style>
      .st0 {
        fill: #80c998;
      }
    </style>
  </defs>
  <g id="Layer_1-2">
    <g>
      <polygon class="st0" points="25 34.3 15.8 42 7.8 42 7.6 31.9 15.5 31.8 15.8 31.8 0 21 5.8 12.6 21.2 23.7 25 34.3"/>
      <polygon class="st0" points="50 31.8 58.2 31.9 58 42 50 42 40.8 34.3 44.6 23.7 60 12.6 65.8 21 50.3 31.7 50 31.8"/>
      <g>
        <polygon class="st0" points="49 10.1 43.8 23.1 32.5 30 21.9 22.6 15.5 3.1 25.8 0 32.7 20.6 32.8 20.9 38.7 7 49 10.1"/>
        <path class="st0" d="M39,40.7v1.3h-12.3v-1.3c0-3.3,2.8-6.1,6.1-6.1s3.2.6,4.3,1.8,1.8,2.7,1.8,4.3h0Z"/>
      </g>
      <g>
        <path class="st0" d="M65.3,25.1s0,0,0,0c0,0,0,0,0,0s0,0,0,0c0,0,0,0,0,0,0,0-.1,0-.2,0,0,0,0,0-.1-.1,0,0,0-.1,0-.2s0-.2,0-.2,0-.1.1-.1c0,0,.1,0,.2,0s0,0,0,0,0,0,0,0c0,0,0,0,0,0,0,0,0,0,0,0h.2s0-.1,0-.1c0,0,0,0,0-.1,0,0,0,0-.2,0,0,0-.1,0-.2,0,0,0-.2,0-.3,0,0,0-.1.1-.2.2s0,.2,0,.3,0,.2,0,.3c0,0,.1.1.2.2,0,0,.2,0,.3,0s.1,0,.2,0c0,0,0,0,.2,0,0,0,0,0,0-.1,0,0,0,0,0-.1h-.2,0Z"/>
        <path class="st0" d="M65,23.8c-.6,0-1.2.5-1.2,1.1s.5,1.1,1.2,1.1,1.2-.5,1.2-1.1-.5-1.1-1.2-1.1ZM65,26c-.6,0-1-.5-1-1s.5-1,1-1,1,.5,1,1-.5,1-1,1Z"/>
      </g>
    </g>
  </g>
</svg>