<?xml version="1.0" encoding="UTF-8"?>
<svg id="Layer_2" xmlns="http://www.w3.org/2000/svg" version="1.1" viewBox="0 0 367.6 98.3">
  <!-- Generator: Adobe Illustrator 30.0.0, SVG Export Plug-In . SVG Version: 2.1.1 Build 123)  -->
  <defs>
    <style>
      .st0 {
        opacity: .6;
      }

      .st1 {
        fill: #28462f;
      }
    </style>
  </defs>
  <g id="Layer_1-2">
    <g>
      <polygon class="st1" points="8.9 7.2 26.9 37.9 44.8 7.2 53.8 7.2 30.6 45.5 30.6 68.3 23 68.3 23 45.3 0 7.2 8.9 7.2"/>
      <path class="st1" d="M74.6,69.3c-8.1,0-14.2-2.2-18.5-6.7-4.2-4.5-6.3-11-6.3-19.5s2-14.8,6.1-19.3,10-6.7,17.8-6.7,13.3,2,17.4,5.9c4.1,3.9,6.1,9.5,6.1,16.7s0,2.1,0,3-.1,1.7-.2,2.3h-39.7c.6,11.8,6.3,17.8,17.3,17.8s13-3,14.6-9.1h7.2c-1.1,5.2-3.5,9.1-7.1,11.8-3.6,2.6-8.5,3.9-14.6,3.9M89.9,39.4c0-5.1-1.4-9-4.1-11.8-2.8-2.7-6.8-4-12.1-4-9.8,0-15.3,5.3-16.4,15.8h32.6Z"/>
      <polygon class="st1" points="127.2 7.2 167.9 7.2 167.9 14.1 134.8 14.1 134.8 34 166 34 166 40.6 134.8 40.6 134.8 61.5 167.9 61.5 167.9 68.3 127.2 68.3 127.2 7.2"/>
      <path class="st1" d="M189.7,52c0,4,.8,6.8,2.5,8.5s4.4,2.5,8.3,2.5,2.3,0,3.4-.1c1.2,0,2.2-.2,3.1-.3v6.1c-.8.1-1.9.3-3.3.4-1.4.2-2.9.2-4.3.2-11.3,0-16.9-5.3-16.9-16v-29.5h-11v-5.7h11V4.8l7.2-1.9v15.1h16.9v5.7h-16.9v28.2h0Z"/>
      <path class="st1" d="M209.8,54.8c0-4.4,1.5-7.8,4.4-10.3,2.9-2.5,7.1-3.8,12.6-3.8h17v-6.2c0-7.3-4.2-10.9-12.6-10.9s-11.8,2.8-12.6,8.4h-7.4c.4-4.9,2.4-8.6,5.8-11.1s8.4-3.7,14.8-3.7c2.9,0,5.6.4,7.9,1.2,2.4.8,4.4,1.9,6.1,3.2,1.7,1.4,3,3.1,3.9,5,.9,2,1.4,4.1,1.4,6.5v35.2h-5.4l-1.3-7.3c-3.5,5.5-9.2,8.3-17.2,8.3s-9.5-1.3-12.6-3.9-4.6-6.1-4.6-10.6M243.8,46h-15.9c-3.4,0-6,.8-7.9,2.4-1.9,1.6-2.8,3.8-2.8,6.5s1,4.7,2.9,6.2c1.9,1.5,4.6,2.3,8,2.3s6.9-.8,9.7-2.4c2.8-1.6,4.8-3.8,6-6.7v-8.3h0Z"/>
      <path class="st1" d="M262.7.7h7.2v22.5c1.9-1.7,4.3-3.1,7-4.3,2.7-1.2,5.9-1.7,9.7-1.7s7,.6,10,1.8c2.9,1.2,5.4,2.9,7.5,5.2,2,2.3,3.6,5,4.7,8.2,1.1,3.2,1.6,6.8,1.6,10.8,0,8.3-2,14.8-6,19.4-4,4.6-9.6,6.9-17,6.9s-13.3-2.2-18-6.5l-1.2,5.6h-5.5V.7h0ZM270,55.6c4,4.8,9.2,7.2,15.7,7.2,11.6,0,17.4-6.5,17.4-19.5s-1.5-11.1-4.6-14.4c-3.1-3.4-7.5-5-13.2-5s-11.5,2.4-15.3,7.2v24.6h0Z"/>
      <path class="st1" d="M315.1,54.8c0-4.4,1.5-7.8,4.4-10.3,2.9-2.5,7.1-3.8,12.5-3.8h17v-6.2c0-7.3-4.2-10.9-12.6-10.9s-11.8,2.8-12.6,8.4h-7.4c.4-4.9,2.4-8.6,5.8-11.1,3.5-2.5,8.4-3.7,14.8-3.7,3,0,5.6.4,7.9,1.2,2.4.8,4.4,1.9,6.1,3.2,1.7,1.4,3,3.1,3.9,5,.9,2,1.4,4.1,1.4,6.5v35.2h-5.5l-1.3-7.3c-3.5,5.5-9.2,8.3-17.2,8.3s-9.5-1.3-12.6-3.9-4.6-6.1-4.6-10.6M349,46h-15.9c-3.4,0-6,.8-7.9,2.4-1.9,1.6-2.8,3.8-2.8,6.5s1,4.7,2.9,6.2c1.9,1.5,4.6,2.3,8,2.3s6.9-.8,9.7-2.4c2.8-1.6,4.8-3.8,6-6.7v-8.3h0Z"/>
      <g class="st0">
        <path class="st1" d="M244.8,88.1c0-2.2.6-3.8,1.7-5,1.1-1.2,2.7-1.8,4.7-1.8,3.5,0,5.5,1.6,6,4.8h-1.8c-.4-2.2-1.8-3.3-4.2-3.3s-2.7.4-3.5,1.4c-.8.9-1.2,2.2-1.2,3.9s.4,3.1,1.2,4c.8.9,1.9,1.4,3.5,1.4s2.2-.3,2.9-.8,1.1-1.4,1.3-2.5h1.8c-.2,1.6-.8,2.8-1.8,3.6s-2.4,1.2-4.1,1.2-3.6-.6-4.7-1.8-1.6-2.9-1.6-5.1h0Z"/>
        <path class="st1" d="M257.9,89.2c0-1.8.5-3.2,1.4-4.2s2.3-1.4,4-1.4,3.1.5,4,1.4c.9,1,1.4,2.3,1.4,4.2s-.5,3.3-1.4,4.2c-.9,1-2.2,1.4-4,1.4s-3.1-.5-4-1.4c-.9-1-1.4-2.4-1.4-4.2ZM259.5,89.2c0,2.8,1.3,4.2,3.8,4.2s3.8-1.4,3.8-4.2-1.3-4.2-3.8-4.2-3.8,1.4-3.8,4.2Z"/>
        <path class="st1" d="M270.2,83.8h1.2l.3,1.5c.5-.5,1-.9,1.5-1.2s1.3-.5,2.1-.5c1.2,0,2.2.4,3,1.1.7.8,1.1,1.8,1.1,3.1v6.9h-1.6v-6.6c0-1-.2-1.8-.8-2.3s-1.2-.8-2.2-.8-1.2.2-1.8.5-1,.7-1.4,1.3v7.9h-1.6v-10.9h0Z"/>
        <path class="st1" d="M289.5,91.6c0,1-.4,1.8-1.1,2.4-.8.6-1.8.9-3.1.9s-1.4,0-1.9-.3c-.6-.2-1-.4-1.5-.7-.4-.3-.7-.7-.9-1.1-.2-.4-.3-.9-.3-1.4h1.5c0,.7.3,1.2.8,1.6s1.3.6,2.3.6.6,0,.9,0,.6-.2.8-.3.4-.3.6-.6.2-.5.2-.9c0-.5-.2-.9-.7-1.1-.5-.2-1.1-.3-2.1-.4-1.5-.1-2.6-.4-3.3-.8-.7-.5-1.1-1.2-1.1-2.3s.4-1.8,1.1-2.5,1.8-.9,3.1-.9,1.2,0,1.7.2,1,.4,1.3.6.7.6.9,1c.2.4.4.9.4,1.4h-1.6c0-.6-.4-1.1-.9-1.4-.5-.3-1.1-.5-1.9-.5s-.6,0-.9,0-.6.2-.9.3-.5.3-.6.6-.2.6-.2.9c0,.6.2,1.1.7,1.3.5.3,1.3.4,2.3.5,1.4.1,2.4.4,3.1.8.7.4,1,1.1,1,2.1h0Z"/>
        <path class="st1" d="M299.7,94.7h-1.2l-.3-1.4c-.4.5-.9.9-1.5,1.2-.6.3-1.2.4-2,.4-1.2,0-2.1-.4-2.8-1.1-.7-.8-1-1.8-1-3.1v-6.9h1.6v6.6c0,1,.2,1.8.7,2.3s1.1.8,2,.8,1.2-.2,1.7-.5,1-.7,1.3-1.3v-7.9h1.6v10.9h0Z"/>
        <path class="st1" d="M302,79.8h1.6v14.8h-1.6v-14.8Z"/>
        <path class="st1" d="M308.3,91.1c0,.8.2,1.5.5,1.8.4.4,1,.6,1.8.6s.5,0,.7,0,.5,0,.7,0v1.3c-.2,0-.4,0-.7,0s-.6,0-.9,0c-2.4,0-3.7-1.2-3.7-3.5v-6.4h-2.4v-1.2h2.4v-2.9l1.6-.4v3.3h3.7v1.2h-3.7v6.1h0Z"/>
        <path class="st1" d="M312.2,91.8c0-.9.3-1.7,1-2.2.6-.5,1.5-.8,2.7-.8h3.7v-1.3c0-1.6-.9-2.4-2.7-2.4s-2.6.6-2.7,1.8h-1.6c0-1.1.5-1.9,1.3-2.4.8-.5,1.8-.8,3.2-.8.6,0,1.2,0,1.7.2s1,.4,1.3.7c.4.3.6.7.8,1.1.2.4.3.9.3,1.4v7.6h-1.2l-.3-1.6c-.8,1.2-2,1.8-3.7,1.8s-2.1-.3-2.7-.8c-.7-.6-1-1.3-1-2.3h0ZM319.6,89.8h-3.4c-.7,0-1.3.2-1.7.5s-.6.8-.6,1.4.2,1,.6,1.3c.4.3,1,.5,1.7.5s1.5-.2,2.1-.5,1-.8,1.3-1.4v-1.8h0Z"/>
        <path class="st1" d="M323.3,83.8h1.2l.3,1.5c.5-.5,1-.9,1.5-1.2s1.3-.5,2.1-.5c1.2,0,2.2.4,3,1.1.7.8,1.1,1.8,1.1,3.1v6.9h-1.6v-6.6c0-1-.2-1.8-.8-2.3s-1.2-.8-2.2-.8-1.2.2-1.8.5-1,.7-1.4,1.3v7.9h-1.6v-10.9h0Z"/>
        <path class="st1" d="M339.2,85c-2.5,0-3.7,1.4-3.7,4.2s1.3,4.2,3.8,4.2,3-.8,3.2-2.5h1.5c-.1,1.3-.6,2.3-1.4,2.9-.9.7-2,1-3.4,1s-3.1-.5-4-1.4c-.9-1-1.4-2.4-1.4-4.2s.5-3.2,1.4-4.2,2.2-1.4,4-1.4,2.5.3,3.4,1,1.3,1.6,1.4,2.9h-1.5c-.2-1.7-1.3-2.5-3.3-2.5h0Z"/>
        <path class="st1" d="M345,96.9c0,0,.2,0,.4,0,.1,0,.3,0,.5,0s.3,0,.5,0h.4c.4,0,.7,0,1-.3.3-.2.5-.5.7-1l.3-.7-4.5-11.1h1.7l3.5,9.1,3.5-9.1h1.7l-4.7,11.9c-.3.8-.7,1.4-1.1,1.9s-1.1.7-1.9.7h-.4c-.2,0-.3,0-.5,0s-.4,0-.5,0c-.2,0-.3,0-.4,0v-1.4h0Z"/>
        <path class="st1" d="M354.9,93.8c0-.3.1-.6.3-.8.2-.2.5-.3.8-.3s.6.1.9.3c.2.2.3.5.3.8s-.1.6-.3.8-.5.3-.9.3-.6-.1-.8-.3c-.2-.2-.3-.5-.3-.8Z"/>
      </g>
    </g>
  </g>
</svg>